<svg width="19" height="19" viewBox="0 0 19 19" fill="none" xmlns="http://www.w3.org/2000/svg">
<path d="M18.7622 11.0558C18.7622 10.7426 18.5082 10.4886 18.195 10.4886H17.0597V2.75501C17.0597 1.23589 15.8238 0 14.3047 0C12.7856 0 11.5497 1.23589 11.5497 2.75501V3.78902C11.5497 4.10226 11.8037 4.35624 12.1169 4.35624C12.4301 4.35624 12.6841 4.10226 12.6841 3.78902V2.75501C12.6841 1.86141 13.4111 1.13444 14.3047 1.13444C15.1983 1.13444 15.9253 1.86141 15.9253 2.75501V10.4886H0.805499C0.492258 10.4886 0.238281 10.7426 0.238281 11.0558C0.238281 13.6158 1.8574 15.8044 4.12527 16.6522C3.68901 17.1108 3.41919 17.7397 3.41919 18.4328C3.41919 18.746 3.67317 19 3.98641 19C4.29965 19 4.55363 18.746 4.55363 18.4328C4.55363 17.6583 5.1446 17.0282 5.87105 17.0282C5.89773 17.0282 13.1028 17.0282 13.1294 17.0282C13.8559 17.0282 14.4469 17.6583 14.4469 18.4328C14.4469 18.746 14.7009 19 15.0141 19C15.3274 19 15.5813 18.746 15.5813 18.4328C15.5813 17.7397 15.3115 17.1108 14.8753 16.6522C17.1431 15.8044 18.7622 13.6158 18.7622 11.0558ZM12.7898 15.8938H6.21068C3.73481 15.8938 1.68741 14.0245 1.40578 11.6231H17.5947C17.3131 14.0245 15.2656 15.8938 12.7898 15.8938Z" fill="#696969"/>
<path d="M12.1165 5.34033C11.8033 5.34033 11.5493 5.59431 11.5493 5.90755V6.39914C11.5493 6.71238 11.8033 6.96636 12.1165 6.96636C12.4298 6.96636 12.6838 6.71238 12.6838 6.39914V5.90755C12.6837 5.59427 12.4298 5.34033 12.1165 5.34033Z" fill="#696969"/>
<path d="M12.1165 8.06323C11.8033 8.06323 11.5493 8.31721 11.5493 8.63045V9.12204C11.5493 9.43528 11.8033 9.68926 12.1165 9.68926C12.4298 9.68926 12.6838 9.43528 12.6838 9.12204V8.63045C12.6837 8.31717 12.4298 8.06323 12.1165 8.06323Z" fill="#696969"/>
</svg>
