<svg width="19" height="19" viewBox="0 0 17 17" fill="none" xmlns="http://www.w3.org/2000/svg">
<g clip-path="url(#clip0_148_1097)">
<path d="M16.149 0.146911L0.147593 16.1484C-0.165849 16.4618 0.0565081 17.0002 0.500424 17.0002H16.5019C16.7775 17.0002 17.0009 16.7768 17.0009 16.5012V0.499775C17.0009 0.056491 16.463 -0.166964 16.149 0.146911ZM16.0029 16.0022H1.70516L4.243 13.4644L4.93808 14.1595C5.03552 14.2569 5.16323 14.3056 5.29091 14.3056C5.7315 14.3056 5.95902 13.769 5.64374 13.4537L4.94866 12.7587L6.37206 11.3353L7.06714 12.0304C7.16458 12.1278 7.29229 12.1765 7.41997 12.1765C7.86056 12.1765 8.08807 11.6399 7.7728 11.3246L7.07775 10.6296L8.50115 9.2062L9.19623 9.90128C9.29367 9.99872 9.42138 10.0474 9.54906 10.0474C9.98965 10.0474 10.2172 9.51083 9.90189 9.19556L9.20684 8.50051L10.6302 7.07711L11.3253 7.77219C11.4228 7.86963 11.5505 7.91833 11.6782 7.91833C12.1187 7.91833 12.3463 7.38173 12.031 7.06646L11.3359 6.37141L12.7593 4.94802L13.4544 5.6431C13.5519 5.74054 13.6796 5.78924 13.8072 5.78924C14.2478 5.78924 14.4753 5.25264 14.1601 4.93737L13.465 4.24232L16.0029 1.70448V16.0022H16.0029Z" fill="#696969"/>
<path d="M12.9214 8.39691L8.3971 12.9212C8.08366 13.2347 8.30602 13.7731 8.74994 13.7731H13.2743C13.5498 13.7731 13.7733 13.5497 13.7733 13.2741V8.74977C13.7733 8.30649 13.2353 8.08304 12.9214 8.39691ZM12.7753 12.7751H9.95467L12.7753 9.95447V12.7751Z" fill="#696969"/>
</g>
<defs>
<clipPath id="clip0_148_1097">
<rect width="17" height="17" fill="white"/>
</clipPath>
</defs>
</svg>
